<?xml version="1.0" encoding="UTF-8" standalone="no"?>
<!-- Created with Inkscape (http://www.inkscape.org/) -->

<svg
   xmlns:dc="http://purl.org/dc/elements/1.1/"
   xmlns:cc="http://creativecommons.org/ns#"
   xmlns:rdf="http://www.w3.org/1999/02/22-rdf-syntax-ns#"
   xmlns:svg="http://www.w3.org/2000/svg"
   xmlns="http://www.w3.org/2000/svg"
   xmlns:sodipodi="http://sodipodi.sourceforge.net/DTD/sodipodi-0.dtd"
   xmlns:inkscape="http://www.inkscape.org/namespaces/inkscape"
   version="1.1"
   id="svg2"
   xml:space="preserve"
   width="479.31998"
   height="133.54932"
   viewBox="0 0 479.31998 133.54932"
   sodipodi:docname="zfnet.svg"
   inkscape:version="0.92.2 (5c3e80d, 2017-08-06)"><metadata
     id="metadata8"><rdf:RDF><cc:Work
         rdf:about=""><dc:format>image/svg+xml</dc:format><dc:type
           rdf:resource="http://purl.org/dc/dcmitype/StillImage" /><dc:title></dc:title></cc:Work></rdf:RDF></metadata><defs
     id="defs6"><clipPath
       clipPathUnits="userSpaceOnUse"
       id="clipPath26"><path
         d="m 124.941,704.81201 h 344.50202 v -85.162 H 124.941 Z"
         id="path24"
         inkscape:connector-curvature="0" /></clipPath><clipPath
       clipPathUnits="userSpaceOnUse"
       id="clipPath558"><path
         d="m 395.103,485.20401 h 74.72899 v -57.194 H 395.103 Z"
         id="path556"
         inkscape:connector-curvature="0" /></clipPath><clipPath
       clipPathUnits="userSpaceOnUse"
       id="clipPath570"><path
         d="m 318.73401,485.20401 h 74.086 v -57.194 h -74.086 z"
         id="path568"
         inkscape:connector-curvature="0" /></clipPath><clipPath
       clipPathUnits="userSpaceOnUse"
       id="clipPath582"><path
         d="m 243.651,485.20401 h 72.475 v -57.194 h -72.475 z"
         id="path580"
         inkscape:connector-curvature="0" /></clipPath><clipPath
       clipPathUnits="userSpaceOnUse"
       id="clipPath594"><path
         d="m 174.974,485.20401 h 65.71 v -57.194 h -65.71 z"
         id="path592"
         inkscape:connector-curvature="0" /></clipPath><clipPath
       clipPathUnits="userSpaceOnUse"
       id="clipPath606"><path
         d="m 124.455,485.20401 h 47.673 v -57.194 h -47.673 z"
         id="path604"
         inkscape:connector-curvature="0" /></clipPath></defs><sodipodi:namedview
     pagecolor="#ffffff"
     bordercolor="#666666"
     borderopacity="1"
     objecttolerance="10"
     gridtolerance="10"
     guidetolerance="10"
     inkscape:pageopacity="0"
     inkscape:pageshadow="2"
     inkscape:window-width="1366"
     inkscape:window-height="704"
     id="namedview4"
     showgrid="false"
     fit-margin-top="10"
     fit-margin-left="10"
     fit-margin-right="10"
     fit-margin-bottom="10"
     inkscape:zoom="1.6633285"
     inkscape:cx="239.65999"
     inkscape:cy="66.774659"
     inkscape:window-x="0"
     inkscape:window-y="27"
     inkscape:window-maximized="1"
     inkscape:current-layer="g10" /><g
     id="g10"
     inkscape:groupmode="layer"
     inkscape:label="zeilerECCV2014"
     transform="matrix(1.3333333,0,0,-1.3333333,-52.652665,837.87706)"><g
       clip-path="url(#clipPath26)"
       id="g22"
       transform="translate(-77.9515,-83.904198)"><path
         inkscape:connector-curvature="0"
         id="path28"
         style="fill:#ffffff;fill-opacity:1;fill-rule:nonzero;stroke:none"
         d="m 124.941,619.65002 h 344.48999 v 85.16201 H 124.941 Z" /></g><path
       d="m 49.0565,609.88578 h 50.255 v -50.253 h -50.255 z"
       style="fill:none;stroke:#000000;stroke-width:0.37;stroke-linecap:butt;stroke-linejoin:round;stroke-miterlimit:10;stroke-dasharray:none;stroke-opacity:1"
       id="path30"
       inkscape:connector-curvature="0" /><text
       transform="scale(1.0000253,-0.99997466)"
       style="font-variant:normal;font-weight:normal;font-size:5.91914988px;font-family:MyriadPro;-inkscape-font-specification:MyriadPro-Regular;writing-mode:lr-tb;fill:#000000;fill-opacity:1;fill-rule:nonzero;stroke:none;stroke-width:0.99997467"
       id="text34"
       x="60.982056"
       y="-548.22357"><tspan
         x="60.982056 62.455925 65.741051 69.109047 72.370499 74.329742 75.584595 77.058464 81.995041 84.848068 88.156876 91.122368"
         y="-548.22357"
         sodipodi:role="line"
         id="tspan32"
         style="stroke-width:0.99997467">Input Image </tspan></text>
<path
       inkscape:connector-curvature="0"
       id="path38"
       style="fill:none;stroke:#000000;stroke-width:0.98699999;stroke-linecap:butt;stroke-linejoin:round;stroke-miterlimit:10;stroke-dasharray:none;stroke-opacity:1"
       d="m 76.53249,594.13578 v -16.969" /><path
       inkscape:connector-curvature="0"
       id="path42"
       style="fill:#000000;fill-opacity:1;fill-rule:evenodd;stroke:none"
       d="m 76.53249,576.18882 -2.153,3.69 c -0.137,0.235 -0.057,0.537 0.178,0.675 0.235,0.137 0.537,0.057 0.675,-0.178 l 1.3,-2.229 1.3,2.229 c 0.138,0.235 0.44,0.315 0.675,0.178 0.235,-0.138 0.315,-0.44 0.178,-0.675" /><path
       d="m 118.2595,609.88578 h 28.388 v -28.387 h -28.388 z"
       style="fill:none;stroke:#ff2600;stroke-width:0.37;stroke-linecap:butt;stroke-linejoin:round;stroke-miterlimit:10;stroke-dasharray:none;stroke-opacity:1"
       id="path44"
       inkscape:connector-curvature="0" /><text
       transform="scale(1.0000253,-0.99997466)"
       style="font-variant:normal;font-weight:normal;font-size:5.91914988px;font-family:MyriadPro;-inkscape-font-specification:MyriadPro-Regular;writing-mode:lr-tb;fill:#000000;fill-opacity:1;fill-rule:nonzero;stroke:none;stroke-width:0.99997467"
       id="text48"
       x="79.147995"
       y="-581.57751"><tspan
         x="79.147995 81.495529 83.458321 85.39743 86.786064 90.128021 93.097061 94.351921"
         y="-581.57751"
         sodipodi:role="line"
         id="tspan46"
         style="stroke-width:0.99997467">stride 2</tspan></text>
<text
       transform="scale(1.0000253,-0.99997466)"
       style="font-variant:normal;font-weight:normal;font-size:5.91914988px;font-family:MyriadPro;-inkscape-font-specification:MyriadPro-Regular;writing-mode:lr-tb;fill:#000000;fill-opacity:1;fill-rule:nonzero;stroke:none;stroke-width:0.99997467"
       id="text56"
       x="56.883957"
       y="-611.659"><tspan
         x="56.883957 58.269039 63.205612 66.05864 69.367447 72.332939 73.587799 75.931786 77.316864 79.80883 82.774323 84.029182 87.065704 90.102226"
         y="-611.659"
         sodipodi:role="line"
         id="tspan54"
         style="stroke-width:0.99997467">image size 224</tspan></text>
<path
       d="m 70.1095,600.27878 h 12.847 v -12.847 h -12.847 z"
       style="fill:none;stroke:#ff2600;stroke-width:0.37;stroke-linecap:butt;stroke-linejoin:round;stroke-miterlimit:10;stroke-dasharray:none;stroke-opacity:1"
       id="path62"
       inkscape:connector-curvature="0" /><path
       inkscape:connector-curvature="0"
       id="path66"
       style="fill:none;stroke:#000000;stroke-width:0.98699999;stroke-linecap:butt;stroke-linejoin:round;stroke-miterlimit:10;stroke-dasharray:none;stroke-opacity:1"
       d="m 99.99551,562.1818 7.698,-7.094" /><path
       inkscape:connector-curvature="0"
       id="path70"
       style="fill:#000000;fill-opacity:1;fill-rule:evenodd;stroke:none"
       d="m 99.31049,562.8118 3.062,-0.576 c 0.268,-0.05 0.444,-0.308 0.394,-0.576 -0.05,-0.268 -0.308,-0.444 -0.576,-0.393 l -1.511,0.284 0.407,-1.483 c 0.071,-0.262 -0.083,-0.534 -0.346,-0.606 -0.262,-0.072 -0.534,0.083 -0.606,0.345" /><path
       inkscape:connector-curvature="0"
       id="path74"
       style="fill:#000000;fill-opacity:1;fill-rule:evenodd;stroke:none"
       d="m 108.37749,554.45682 -3.062,0.576 c -0.268,0.05 -0.444,0.308 -0.394,0.576 0.051,0.268 0.308,0.444 0.576,0.394 l 1.511,-0.285 -0.406,1.483 c -0.072,0.263 0.082,0.534 0.345,0.606 0.263,0.072 0.534,-0.082 0.606,-0.345" /><text
       transform="scale(1.0000253,-0.99997466)"
       style="font-variant:normal;font-weight:normal;font-size:5.91914988px;font-family:MyriadPro;-inkscape-font-specification:MyriadPro-Regular;writing-mode:lr-tb;fill:#000000;fill-opacity:1;fill-rule:nonzero;stroke:none;stroke-width:0.99997467"
       id="text78"
       x="104.44537"
       y="-560.70947"><tspan
         x="104.44537"
         y="-560.70947"
         id="tspan76"
         style="stroke-width:0.99997467">3</tspan></text>
<text
       transform="scale(1.0000253,-0.99997466)"
       style="font-variant:normal;font-weight:normal;font-size:5.91914988px;font-family:MyriadPro;-inkscape-font-specification:MyriadPro-Regular;writing-mode:lr-tb;fill:#000000;fill-opacity:1;fill-rule:nonzero;stroke:none;stroke-width:0.99997467"
       id="text86"
       x="151.45267"
       y="-582.83588"><tspan
         x="151.45267 154.48918"
         y="-582.83588"
         sodipodi:role="line"
         id="tspan84"
         style="stroke-width:0.99997467">96</tspan></text>
<path
       inkscape:connector-curvature="0"
       id="path94"
       style="fill:none;stroke:#000000;stroke-width:0.98699999;stroke-linecap:butt;stroke-linejoin:round;stroke-miterlimit:10;stroke-dasharray:none;stroke-opacity:1"
       d="m 129.57951,565.2858 v -11.832" /><path
       inkscape:connector-curvature="0"
       id="path98"
       style="fill:#000000;fill-opacity:1;fill-rule:evenodd;stroke:none"
       d="m 129.57951,552.47483 -2.152,3.69 c -0.137,0.235 -0.058,0.537 0.177,0.674 0.236,0.138 0.538,0.058 0.675,-0.177 l 1.3,-2.229 1.301,2.229 c 0.137,0.235 0.439,0.315 0.674,0.177 0.236,-0.137 0.315,-0.439 0.178,-0.674" /><text
       transform="scale(1.0000253,-0.99997466)"
       style="font-variant:normal;font-weight:normal;font-size:5.91914988px;font-family:MyriadPro;-inkscape-font-specification:MyriadPro-Regular;writing-mode:lr-tb;fill:#000000;fill-opacity:1;fill-rule:nonzero;stroke:none;stroke-width:0.99997467"
       id="text102"
       x="135.55397"
       y="-563.38232"><tspan
         x="135.55397"
         y="-563.38232"
         id="tspan100"
         style="stroke-width:0.99997467">5</tspan></text>
<text
       transform="scale(1.0000253,-0.99997466)"
       style="font-variant:normal;font-weight:normal;font-size:5.91914988px;font-family:MyriadPro;-inkscape-font-specification:MyriadPro-Regular;writing-mode:lr-tb;fill:#000000;fill-opacity:1;fill-rule:nonzero;stroke:none;stroke-width:0.99997467"
       id="text110"
       x="132.77533"
       y="-554.18164"><tspan
         x="132.77533"
         y="-554.18164"
         id="tspan108"
         style="stroke-width:0.99997467">2</tspan></text>
<path
       d="m 124.20049,570.40781 h 10.522 v -10.521 h -10.522 z"
       style="fill:none;stroke:#00f900;stroke-width:0.37;stroke-linecap:butt;stroke-linejoin:round;stroke-miterlimit:10;stroke-dasharray:none;stroke-opacity:1"
       id="path116"
       inkscape:connector-curvature="0" /><text
       transform="scale(1.0000253,-0.99997466)"
       style="font-variant:normal;font-weight:normal;font-size:5.91914988px;font-family:MyriadPro;-inkscape-font-specification:MyriadPro-Regular;writing-mode:lr-tb;fill:#000000;fill-opacity:1;fill-rule:nonzero;stroke:none;stroke-width:0.99997467"
       id="text120"
       x="127.15188"
       y="-611.04175"><tspan
         x="127.15188 130.1884 133.22493"
         y="-611.04175"
         sodipodi:role="line"
         id="tspan118"
         style="stroke-width:0.99997467">110</tspan></text>
<path
       d="m 122.02151,572.43082 h 21.98 v -21.98 h -21.98 z"
       style="fill:none;stroke:#000000;stroke-width:0.37;stroke-linecap:butt;stroke-linejoin:round;stroke-miterlimit:10;stroke-dasharray:none;stroke-opacity:1"
       id="path126"
       inkscape:connector-curvature="0" /><text
       transform="scale(1.0000253,-0.99997466)"
       style="font-variant:normal;font-weight:normal;font-size:5.91914988px;font-family:MyriadPro;-inkscape-font-specification:MyriadPro-Regular;writing-mode:lr-tb;fill:#000000;fill-opacity:1;fill-rule:nonzero;stroke:none;stroke-width:0.99997467"
       id="text130"
       x="114.84919"
       y="-559.97076"><tspan
         x="114.84919 117.88571 120.92224"
         y="-559.97076"
         sodipodi:role="line"
         id="tspan128"
         style="stroke-width:0.99997467">55 </tspan></text>
<text
       transform="scale(1.0000225,-0.9999775)"
       style="font-variant:normal;font-weight:normal;font-size:4.4394002px;font-family:MyriadPro;-inkscape-font-specification:MyriadPro-Regular;writing-mode:lr-tb;fill:#000000;fill-opacity:1;fill-rule:nonzero;stroke:none;stroke-width:0.99997753"
       id="text136"
       x="105.76702"
       y="-577.73041"><tspan
         x="105.76702 108.04443 110.09988 112.37729 113.31844 117.0209 119.16069 121.21613 122.15729 124.6833 127.12054 129.55777 130.60547"
         y="-577.73041"
         sodipodi:role="line"
         id="tspan132"
         style="stroke-width:0.99997753">3x3 max pool </tspan><tspan
         x="105.76702 107.52769 108.99979 110.45414 111.49562 114.00211 116.22891 117.17006"
         y="-572.79779"
         sodipodi:role="line"
         id="tspan134"
         style="stroke-width:0.99997753">stride 2</tspan></text>
<path
       inkscape:connector-curvature="0"
       id="path140"
       style="fill:none;stroke:#000000;stroke-width:0.37;stroke-linecap:butt;stroke-linejoin:miter;stroke-miterlimit:8;stroke-dasharray:none;stroke-opacity:1"
       d="m 129.5005,575.77482 h 1.672 v 5.724 h 3.344 v -5.724 h 1.672 l -3.344,-3.344 z" /><text
       transform="scale(1.0000253,-0.99997466)"
       style="font-variant:normal;font-weight:normal;font-size:5.91914988px;font-family:MyriadPro;-inkscape-font-specification:MyriadPro-Regular;writing-mode:lr-tb;fill:#000000;fill-opacity:1;fill-rule:nonzero;stroke:none;stroke-width:0.99997467"
       id="text144"
       x="149.22612"
       y="-550.86816"><tspan
         x="149.22612 152.26265"
         y="-550.86816"
         sodipodi:role="line"
         id="tspan142"
         style="stroke-width:0.99997467">96</tspan></text>
<path
       inkscape:connector-curvature="0"
       id="path152"
       style="fill:none;stroke:#000000;stroke-width:0.98699999;stroke-linecap:butt;stroke-linejoin:round;stroke-miterlimit:10;stroke-dasharray:none;stroke-opacity:1"
       d="m 181.77851,560.5438 v -8.704" /><path
       inkscape:connector-curvature="0"
       id="path156"
       style="fill:#000000;fill-opacity:1;fill-rule:evenodd;stroke:none"
       d="m 181.7775,550.85978 2.153,3.69 c 0.137,0.235 0.058,0.537 -0.178,0.675 -0.235,0.137 -0.537,0.057 -0.674,-0.178 l -1.301,-2.229 -1.3,2.229 c -0.137,0.235 -0.439,0.315 -0.675,0.178 -0.235,-0.138 -0.314,-0.44 -0.177,-0.675" /><text
       transform="scale(1.0000253,-0.99997466)"
       style="font-variant:normal;font-weight:normal;font-size:5.91914988px;font-family:MyriadPro;-inkscape-font-specification:MyriadPro-Regular;writing-mode:lr-tb;fill:#000000;fill-opacity:1;fill-rule:nonzero;stroke:none;stroke-width:0.99997467"
       id="text160"
       x="186.51778"
       y="-558.112"><tspan
         x="186.51778"
         y="-558.112"
         id="tspan158"
         style="stroke-width:0.99997467">3</tspan></text>
<text
       transform="scale(1.0000253,-0.99997466)"
       style="font-variant:normal;font-weight:normal;font-size:5.91914988px;font-family:MyriadPro;-inkscape-font-specification:MyriadPro-Regular;writing-mode:lr-tb;fill:#000000;fill-opacity:1;fill-rule:nonzero;stroke:none;stroke-width:0.99997467"
       id="text168"
       x="184.62003"
       y="-551.20135"><tspan
         x="184.62003"
         y="-551.20135"
         id="tspan166"
         style="stroke-width:0.99997467">1</tspan></text>
<path
       d="m 177.80849,564.08079 h 7.8052 v -7.8047 h -7.8052 z"
       style="fill:none;stroke:#0433ff;stroke-width:0.37;stroke-linecap:butt;stroke-linejoin:round;stroke-miterlimit:10;stroke-dasharray:none;stroke-opacity:1"
       id="path174"
       inkscape:connector-curvature="0" /><path
       d="m 172.30849,610.12382 h 21.98 v -21.98 h -21.98 z"
       style="fill:none;stroke:#00f900;stroke-width:0.37;stroke-linecap:butt;stroke-linejoin:round;stroke-miterlimit:10;stroke-dasharray:none;stroke-opacity:1"
       id="path176"
       inkscape:connector-curvature="0" /><text
       transform="scale(1.0000253,-0.99997466)"
       style="font-variant:normal;font-weight:normal;font-size:5.91914988px;font-family:MyriadPro;-inkscape-font-specification:MyriadPro-Regular;writing-mode:lr-tb;fill:#000000;fill-opacity:1;fill-rule:nonzero;stroke:none;stroke-width:0.99997467"
       id="text182"
       x="180.66251"
       y="-611.04175"><tspan
         x="180.66251 183.69904 186.73557"
         y="-611.04175"
         sodipodi:role="line"
         id="tspan178"
         style="stroke-width:0.99997467">26 </tspan><tspan
         x="198.9373 201.97382 205.01035"
         y="-588.3797"
         sodipodi:role="line"
         id="tspan180"
         style="stroke-width:0.99997467">256</tspan></text>
<path
       d="m 175.0295,566.49277 h 16.369 v -16.368 h -16.369 z"
       style="fill:none;stroke:#000000;stroke-width:0.37;stroke-linecap:butt;stroke-linejoin:round;stroke-miterlimit:10;stroke-dasharray:none;stroke-opacity:1"
       id="path188"
       inkscape:connector-curvature="0" /><path
       inkscape:connector-curvature="0"
       id="path192"
       style="fill:none;stroke:#000000;stroke-width:0.98699999;stroke-linecap:butt;stroke-linejoin:round;stroke-miterlimit:10;stroke-dasharray:none;stroke-opacity:1"
       d="m 144.6865,552.43778 7.698,-7.094" /><path
       inkscape:connector-curvature="0"
       id="path196"
       style="fill:#000000;fill-opacity:1;fill-rule:evenodd;stroke:none"
       d="m 144.0015,553.06882 3.062,-0.576 c 0.268,-0.05 0.445,-0.308 0.394,-0.576 -0.05,-0.268 -0.308,-0.444 -0.576,-0.394 l -1.511,0.284 0.407,-1.482 c 0.072,-0.263 -0.083,-0.534 -0.346,-0.606 -0.262,-0.072 -0.534,0.082 -0.606,0.345" /><path
       inkscape:connector-curvature="0"
       id="path200"
       style="fill:#000000;fill-opacity:1;fill-rule:evenodd;stroke:none"
       d="m 153.0685,544.71378 -3.062,0.576 c -0.268,0.05 -0.444,0.308 -0.394,0.576 0.05,0.268 0.308,0.444 0.576,0.393 l 1.511,-0.284 -0.407,1.483 c -0.071,0.262 0.083,0.534 0.346,0.606 0.263,0.072 0.534,-0.083 0.606,-0.345" /><path
       inkscape:connector-curvature="0"
       id="path204"
       style="fill:none;stroke:#000000;stroke-width:0.98699999;stroke-linecap:butt;stroke-linejoin:round;stroke-miterlimit:10;stroke-dasharray:none;stroke-opacity:1"
       d="m 195.27451,590.00083 7.698,-7.094" /><path
       inkscape:connector-curvature="0"
       id="path208"
       style="fill:#000000;fill-opacity:1;fill-rule:evenodd;stroke:none"
       d="m 194.59049,590.63077 3.062,-0.576 c 0.268,-0.05 0.444,-0.308 0.394,-0.576 -0.05,-0.268 -0.308,-0.444 -0.576,-0.394 l -1.511,0.285 0.407,-1.483 c 0.071,-0.263 -0.083,-0.534 -0.346,-0.606 -0.262,-0.072 -0.534,0.082 -0.606,0.345" /><path
       inkscape:connector-curvature="0"
       id="path212"
       style="fill:#000000;fill-opacity:1;fill-rule:evenodd;stroke:none"
       d="m 203.6565,582.27579 -3.062,0.576 c -0.268,0.05 -0.444,0.308 -0.393,0.576 0.05,0.268 0.307,0.444 0.575,0.394 l 1.511,-0.285 -0.406,1.483 c -0.072,0.263 0.082,0.534 0.345,0.606 0.263,0.072 0.534,-0.082 0.606,-0.345" /><path
       inkscape:connector-curvature="0"
       id="path216"
       style="fill:none;stroke:#000000;stroke-width:0.98699999;stroke-linecap:butt;stroke-linejoin:round;stroke-miterlimit:10;stroke-dasharray:none;stroke-opacity:1"
       d="m 147.3315,584.49479 7.698,-7.094" /><path
       inkscape:connector-curvature="0"
       id="path220"
       style="fill:#000000;fill-opacity:1;fill-rule:evenodd;stroke:none"
       d="m 146.64651,585.12479 3.062,-0.576 c 0.268,-0.05 0.444,-0.308 0.394,-0.576 -0.05,-0.268 -0.308,-0.444 -0.576,-0.394 l -1.511,0.285 0.407,-1.483 c 0.071,-0.263 -0.083,-0.534 -0.346,-0.606 -0.262,-0.072 -0.534,0.082 -0.606,0.345" /><path
       inkscape:connector-curvature="0"
       id="path224"
       style="fill:#000000;fill-opacity:1;fill-rule:evenodd;stroke:none"
       d="m 155.71349,576.76981 -3.062,0.576 c -0.268,0.051 -0.444,0.308 -0.394,0.576 0.05,0.268 0.308,0.444 0.576,0.394 l 1.511,-0.285 -0.406,1.483 c -0.072,0.263 0.082,0.534 0.345,0.606 0.263,0.072 0.534,-0.082 0.606,-0.345" /><text
       transform="scale(1.0000253,-0.99997466)"
       style="font-variant:normal;font-weight:normal;font-size:5.91914988px;font-family:MyriadPro;-inkscape-font-specification:MyriadPro-Regular;writing-mode:lr-tb;fill:#000000;fill-opacity:1;fill-rule:nonzero;stroke:none;stroke-width:0.99997467"
       id="text228"
       x="52.532867"
       y="-602.40588"><tspan
         x="52.532867 55.628586 57.025505 58.949226 61.914722 63.850285 65.105141 67.449127 68.834206 71.326172 74.291664 75.546524"
         y="-602.40588"
         sodipodi:role="line"
         id="tspan226"
         style="stroke-width:0.99997467">flter size 7</tspan></text>
<text
       transform="scale(1.0000225,-0.9999775)"
       style="font-variant:normal;font-weight:normal;font-size:4.4394002px;font-family:MyriadPro;-inkscape-font-specification:MyriadPro-Regular;writing-mode:lr-tb;fill:#000000;fill-opacity:1;fill-rule:nonzero;stroke:none;stroke-width:0.99997753"
       id="text240"
       x="165.33717"
       y="-582.44177"><tspan
         x="165.33717 167.61459 169.67003 171.94745 172.8886 176.59106 178.73085 180.78629"
         y="-582.44177"
         sodipodi:role="line"
         id="tspan234"
         style="stroke-width:0.99997753">3x3 max </tspan><tspan
         x="171.74945 174.27547 176.71269 179.14993 180.19763"
         y="-577.50916"
         sodipodi:role="line"
         id="tspan236"
         style="stroke-width:0.99997753">pool </tspan><tspan
         x="166.81683 168.5775 170.04961 171.50395 172.54544 175.05193 177.27872 178.21988"
         y="-572.08337"
         sodipodi:role="line"
         id="tspan238"
         style="stroke-width:0.99997753">stride 2</tspan></text>
<path
       inkscape:connector-curvature="0"
       id="path244"
       style="fill:none;stroke:#000000;stroke-width:0.37;stroke-linecap:butt;stroke-linejoin:miter;stroke-miterlimit:8;stroke-dasharray:none;stroke-opacity:1"
       d="m 179.78751,569.4058 h 1.457 v 18.738 h 2.913 v -18.738 h 1.457 l -2.914,-2.913 z" /><text
       transform="scale(1.0000253,-0.99997466)"
       style="font-variant:normal;font-weight:normal;font-size:5.91914988px;font-family:MyriadPro;-inkscape-font-specification:MyriadPro-Regular;writing-mode:lr-tb;fill:#000000;fill-opacity:1;fill-rule:nonzero;stroke:none;stroke-width:0.99997467"
       id="text250"
       x="168.14594"
       y="-556.13098"><tspan
         x="168.14594 171.18246 174.21899"
         y="-556.13098"
         sodipodi:role="line"
         id="tspan246"
         style="stroke-width:0.99997467">13 </tspan><tspan
         x="196.05177 199.0883 202.12482"
         y="-550.57532"
         sodipodi:role="line"
         id="tspan248"
         style="stroke-width:0.99997467">256</tspan></text>
<path
       inkscape:connector-curvature="0"
       id="path258"
       style="fill:none;stroke:#000000;stroke-width:0.98699999;stroke-linecap:butt;stroke-linejoin:round;stroke-miterlimit:10;stroke-dasharray:none;stroke-opacity:1"
       d="m 192.3895,552.19681 7.698,-7.094" /><path
       inkscape:connector-curvature="0"
       id="path262"
       style="fill:#000000;fill-opacity:1;fill-rule:evenodd;stroke:none"
       d="m 191.70451,552.82779 3.062,-0.576 c 0.268,-0.051 0.445,-0.309 0.394,-0.576 -0.051,-0.268 -0.308,-0.444 -0.576,-0.394 l -1.511,0.284 0.407,-1.483 c 0.072,-0.262 -0.083,-0.533 -0.346,-0.606 -0.262,-0.071 -0.534,0.083 -0.606,0.346" /><path
       inkscape:connector-curvature="0"
       id="path266"
       style="fill:#000000;fill-opacity:1;fill-rule:evenodd;stroke:none"
       d="m 200.77149,544.47281 -3.062,0.576 c -0.268,0.05 -0.445,0.308 -0.394,0.576 0.05,0.268 0.308,0.444 0.576,0.394 l 1.511,-0.284 -0.407,1.482 c -0.072,0.263 0.083,0.534 0.346,0.607 0.262,0.071 0.534,-0.083 0.606,-0.346" /><path
       inkscape:connector-curvature="0"
       id="path270"
       style="fill:none;stroke:#000000;stroke-width:0.98699999;stroke-linecap:butt;stroke-linejoin:round;stroke-miterlimit:10;stroke-dasharray:none;stroke-opacity:1"
       d="m 220.00449,603.9368 v -8.705" /><path
       inkscape:connector-curvature="0"
       id="path274"
       style="fill:#000000;fill-opacity:1;fill-rule:evenodd;stroke:none"
       d="m 220.00449,594.25278 2.153,3.69 c 0.137,0.235 0.058,0.537 -0.178,0.674 -0.235,0.138 -0.537,0.058 -0.674,-0.177 l -1.301,-2.229 -1.3,2.229 c -0.137,0.235 -0.439,0.315 -0.675,0.178 -0.235,-0.138 -0.314,-0.44 -0.177,-0.675" /><text
       transform="scale(1.0000253,-0.99997466)"
       style="font-variant:normal;font-weight:normal;font-size:5.91914988px;font-family:MyriadPro;-inkscape-font-specification:MyriadPro-Regular;writing-mode:lr-tb;fill:#000000;fill-opacity:1;fill-rule:nonzero;stroke:none;stroke-width:0.99997467"
       id="text278"
       x="224.7442"
       y="-601.50549"><tspan
         x="224.7442"
         y="-601.50549"
         id="tspan276"
         style="stroke-width:0.99997467">3</tspan></text>
<text
       transform="scale(1.0000253,-0.99997466)"
       style="font-variant:normal;font-weight:normal;font-size:5.91914988px;font-family:MyriadPro;-inkscape-font-specification:MyriadPro-Regular;writing-mode:lr-tb;fill:#000000;fill-opacity:1;fill-rule:nonzero;stroke:none;stroke-width:0.99997467"
       id="text286"
       x="222.84595"
       y="-594.59503"><tspan
         x="222.84595"
         y="-594.59503"
         id="tspan284"
         style="stroke-width:0.99997467">1</tspan></text>
<path
       d="m 216.0355,607.47379 h 7.8052 v -7.8048 h -7.8052 z"
       style="fill:none;stroke:#ff40ff;stroke-width:0.37;stroke-linecap:butt;stroke-linejoin:round;stroke-miterlimit:10;stroke-dasharray:none;stroke-opacity:1"
       id="path292"
       inkscape:connector-curvature="0" /><path
       d="m 213.56251,610.05979 h 16.369 v -16.368 h -16.369 z"
       style="fill:none;stroke:#0433ff;stroke-width:0.37;stroke-linecap:butt;stroke-linejoin:round;stroke-miterlimit:10;stroke-dasharray:none;stroke-opacity:1"
       id="path294"
       inkscape:connector-curvature="0" /><text
       transform="scale(1.0000253,-0.99997466)"
       style="font-variant:normal;font-weight:normal;font-size:5.91914988px;font-family:MyriadPro;-inkscape-font-specification:MyriadPro-Regular;writing-mode:lr-tb;fill:#000000;fill-opacity:1;fill-rule:nonzero;stroke:none;stroke-width:0.99997467"
       id="text300"
       x="218.97264"
       y="-610.99738"><tspan
         x="218.97264 222.00917 225.04568"
         y="-610.99738"
         sodipodi:role="line"
         id="tspan296"
         style="stroke-width:0.99997467">13 </tspan><tspan
         x="234.27779 237.31432 240.35083"
         y="-593.96918"
         sodipodi:role="line"
         id="tspan298"
         style="stroke-width:0.99997467">384</tspan></text>
<path
       inkscape:connector-curvature="0"
       id="path308"
       style="fill:none;stroke:#000000;stroke-width:0.98699999;stroke-linecap:butt;stroke-linejoin:round;stroke-miterlimit:10;stroke-dasharray:none;stroke-opacity:1"
       d="m 230.61649,595.58982 7.698,-7.094" /><path
       inkscape:connector-curvature="0"
       id="path312"
       style="fill:#000000;fill-opacity:1;fill-rule:evenodd;stroke:none"
       d="m 229.9315,596.21982 3.062,-0.576 c 0.268,-0.051 0.445,-0.308 0.394,-0.576 -0.051,-0.268 -0.308,-0.444 -0.576,-0.394 l -1.511,0.285 0.407,-1.483 c 0.072,-0.263 -0.083,-0.534 -0.346,-0.606 -0.262,-0.072 -0.534,0.082 -0.606,0.345" /><path
       inkscape:connector-curvature="0"
       id="path316"
       style="fill:#000000;fill-opacity:1;fill-rule:evenodd;stroke:none"
       d="m 238.99851,587.86478 -3.062,0.576 c -0.268,0.051 -0.445,0.308 -0.394,0.576 0.051,0.268 0.308,0.444 0.576,0.394 l 1.511,-0.285 -0.407,1.483 c -0.072,0.263 0.083,0.534 0.346,0.606 0.262,0.072 0.534,-0.082 0.606,-0.345" /><path
       inkscape:connector-curvature="0"
       id="path320"
       style="fill:none;stroke:#000000;stroke-width:0.98699999;stroke-linecap:butt;stroke-linejoin:round;stroke-miterlimit:10;stroke-dasharray:none;stroke-opacity:1"
       d="m 253.99851,603.82877 v -8.704" /><path
       inkscape:connector-curvature="0"
       id="path324"
       style="fill:#000000;fill-opacity:1;fill-rule:evenodd;stroke:none"
       d="m 253.99851,594.14579 2.153,3.69 c 0.137,0.235 0.058,0.537 -0.178,0.675 -0.235,0.137 -0.537,0.057 -0.674,-0.178 l -1.301,-2.229 -1.3,2.229 c -0.137,0.235 -0.439,0.315 -0.675,0.178 -0.235,-0.138 -0.314,-0.44 -0.177,-0.675" /><text
       transform="scale(1.0000253,-0.99997466)"
       style="font-variant:normal;font-weight:normal;font-size:5.91914988px;font-family:MyriadPro;-inkscape-font-specification:MyriadPro-Regular;writing-mode:lr-tb;fill:#000000;fill-opacity:1;fill-rule:nonzero;stroke:none;stroke-width:0.99997467"
       id="text328"
       x="258.73746"
       y="-601.39801"><tspan
         x="258.73746"
         y="-601.39801"
         id="tspan326"
         style="stroke-width:0.99997467">3</tspan></text>
<text
       transform="scale(1.0000253,-0.99997466)"
       style="font-variant:normal;font-weight:normal;font-size:5.91914988px;font-family:MyriadPro;-inkscape-font-specification:MyriadPro-Regular;writing-mode:lr-tb;fill:#000000;fill-opacity:1;fill-rule:nonzero;stroke:none;stroke-width:0.99997467"
       id="text336"
       x="256.8392"
       y="-594.48755"><tspan
         x="256.8392"
         y="-594.48755"
         id="tspan334"
         style="stroke-width:0.99997467">1</tspan></text>
<path
       d="m 250.02949,607.36582 h 7.8052 v -7.8048 h -7.8052 z"
       style="fill:none;stroke:#00fdff;stroke-width:0.37;stroke-linecap:butt;stroke-linejoin:round;stroke-miterlimit:10;stroke-dasharray:none;stroke-opacity:1"
       id="path342"
       inkscape:connector-curvature="0" /><path
       d="m 247.5565,609.95279 h 16.369 v -16.368 h -16.369 z"
       style="fill:none;stroke:#ff40ff;stroke-width:0.37;stroke-linecap:butt;stroke-linejoin:round;stroke-miterlimit:10;stroke-dasharray:none;stroke-opacity:1"
       id="path344"
       inkscape:connector-curvature="0" /><text
       transform="scale(1.0000253,-0.99997466)"
       style="font-variant:normal;font-weight:normal;font-size:5.91914988px;font-family:MyriadPro;-inkscape-font-specification:MyriadPro-Regular;writing-mode:lr-tb;fill:#000000;fill-opacity:1;fill-rule:nonzero;stroke:none;stroke-width:0.99997467"
       id="text350"
       x="252.7896"
       y="-610.99957"><tspan
         x="252.7896 255.82613 258.86264"
         y="-610.99957"
         sodipodi:role="line"
         id="tspan346"
         style="stroke-width:0.99997467">13 </tspan><tspan
         x="268.27173 271.30826 274.34479"
         y="-593.86188"
         sodipodi:role="line"
         id="tspan348"
         style="stroke-width:0.99997467">384</tspan></text>
<path
       inkscape:connector-curvature="0"
       id="path358"
       style="fill:none;stroke:#000000;stroke-width:0.98699999;stroke-linecap:butt;stroke-linejoin:round;stroke-miterlimit:10;stroke-dasharray:none;stroke-opacity:1"
       d="m 264.61051,595.48179 7.698,-7.094" /><path
       inkscape:connector-curvature="0"
       id="path362"
       style="fill:#000000;fill-opacity:1;fill-rule:evenodd;stroke:none"
       d="m 263.92551,596.11283 3.062,-0.576 c 0.268,-0.05 0.445,-0.308 0.394,-0.576 -0.051,-0.268 -0.308,-0.444 -0.576,-0.394 l -1.511,0.285 0.407,-1.483 c 0.072,-0.263 -0.083,-0.534 -0.346,-0.606 -0.262,-0.072 -0.534,0.082 -0.606,0.345" /><path
       inkscape:connector-curvature="0"
       id="path366"
       style="fill:#000000;fill-opacity:1;fill-rule:evenodd;stroke:none"
       d="m 272.9925,587.75779 -3.062,0.576 c -0.268,0.05 -0.445,0.308 -0.394,0.576 0.051,0.268 0.308,0.444 0.576,0.394 l 1.511,-0.285 -0.407,1.483 c -0.072,0.263 0.083,0.534 0.346,0.606 0.262,0.072 0.534,-0.082 0.606,-0.345" /><text
       transform="scale(1.0000253,-0.99997466)"
       style="font-variant:normal;font-weight:normal;font-size:5.91914988px;font-family:MyriadPro;-inkscape-font-specification:MyriadPro-Regular;writing-mode:lr-tb;fill:#000000;fill-opacity:1;fill-rule:nonzero;stroke:none;stroke-width:0.99997467"
       id="text370"
       x="124.18565"
       y="-539.57587"><tspan
         x="124.18565 126.97949 129.78517 132.5139 135.47939 137.41495 138.66982 141.70634 173.95032 176.74416 179.54984 182.27856 185.24405 187.17961 188.43448 191.47099"
         y="-539.57587"
         sodipodi:role="line"
         id="tspan368"
         style="stroke-width:0.99997467">Layer 1 Layer 2 </tspan></text>
<path
       d="m 284.85651,609.84983 h 16.369 v -16.368 h -16.369 z"
       style="fill:none;stroke:#00fdff;stroke-width:0.37;stroke-linecap:butt;stroke-linejoin:round;stroke-miterlimit:10;stroke-dasharray:none;stroke-opacity:1"
       id="path372"
       inkscape:connector-curvature="0" /><text
       transform="scale(1.0000253,-0.99997466)"
       style="font-variant:normal;font-weight:normal;font-size:5.91914988px;font-family:MyriadPro;-inkscape-font-specification:MyriadPro-Regular;writing-mode:lr-tb;fill:#000000;fill-opacity:1;fill-rule:nonzero;stroke:none;stroke-width:0.99997467"
       id="text378"
       x="289.91196"
       y="-610.81909"><tspan
         x="289.91196 292.94846 295.98499"
         y="-610.81909"
         sodipodi:role="line"
         id="tspan374"
         style="stroke-width:0.99997467">13 </tspan><tspan
         x="305.56989 308.60638 311.64291"
         y="-593.75891"
         sodipodi:role="line"
         id="tspan376"
         style="stroke-width:0.99997467">256</tspan></text>
<path
       inkscape:connector-curvature="0"
       id="path386"
       style="fill:none;stroke:#000000;stroke-width:0.98699999;stroke-linecap:butt;stroke-linejoin:round;stroke-miterlimit:10;stroke-dasharray:none;stroke-opacity:1"
       d="m 301.90949,595.37882 7.698,-7.094" /><path
       inkscape:connector-curvature="0"
       id="path390"
       style="fill:#000000;fill-opacity:1;fill-rule:evenodd;stroke:none"
       d="m 301.2255,596.0098 3.062,-0.576 c 0.268,-0.05 0.444,-0.308 0.394,-0.576 -0.05,-0.268 -0.308,-0.444 -0.576,-0.394 l -1.511,0.285 0.407,-1.483 c 0.071,-0.263 -0.083,-0.534 -0.346,-0.606 -0.263,-0.072 -0.534,0.082 -0.606,0.345" /><path
       inkscape:connector-curvature="0"
       id="path394"
       style="fill:#000000;fill-opacity:1;fill-rule:evenodd;stroke:none"
       d="m 310.29151,587.65482 -3.062,0.576 c -0.268,0.05 -0.444,0.308 -0.394,0.576 0.051,0.268 0.308,0.444 0.576,0.394 l 1.511,-0.285 -0.406,1.483 c -0.072,0.263 0.082,0.534 0.345,0.606 0.262,0.072 0.534,-0.082 0.606,-0.345" /><path
       d="m 287.6005,562.28281 h 12.01 v -12.01 h -12.01 z"
       style="fill:none;stroke:#000000;stroke-width:0.37;stroke-linecap:butt;stroke-linejoin:round;stroke-miterlimit:10;stroke-dasharray:none;stroke-opacity:1"
       id="path396"
       inkscape:connector-curvature="0" /><text
       transform="scale(1.0000225,-0.9999775)"
       style="font-variant:normal;font-weight:normal;font-size:4.4394002px;font-family:MyriadPro;-inkscape-font-specification:MyriadPro-Regular;writing-mode:lr-tb;fill:#000000;fill-opacity:1;fill-rule:nonzero;stroke:none;stroke-width:0.99997753"
       id="text404"
       x="275.7836"
       y="-581.28119"><tspan
         x="275.7836 278.061 280.11646 282.39386 283.33502 287.03748 289.17728 291.2327"
         y="-581.28119"
         sodipodi:role="line"
         id="tspan398"
         style="stroke-width:0.99997753">3x3 max </tspan><tspan
         x="282.19586 284.72189 287.15912 289.59634 290.64404"
         y="-576.34857"
         sodipodi:role="line"
         id="tspan400"
         style="stroke-width:0.99997753">pool </tspan><tspan
         x="277.26324 279.02393 280.49603 281.95038 282.99185 285.49832 287.72513 288.66629"
         y="-570.92273"
         sodipodi:role="line"
         id="tspan402"
         style="stroke-width:0.99997753">stride 2</tspan></text>
<path
       inkscape:connector-curvature="0"
       id="path408"
       style="fill:none;stroke:#000000;stroke-width:0.37;stroke-linecap:butt;stroke-linejoin:miter;stroke-miterlimit:8;stroke-dasharray:none;stroke-opacity:1"
       d="m 290.25349,565.62681 h 1.672 v 27.864 h 3.344 v -27.864 h 1.672 l -3.344,-3.344 z" /><text
       transform="scale(1.0000253,-0.99997466)"
       style="font-variant:normal;font-weight:normal;font-size:5.91914988px;font-family:MyriadPro;-inkscape-font-specification:MyriadPro-Regular;writing-mode:lr-tb;fill:#000000;fill-opacity:1;fill-rule:nonzero;stroke:none;stroke-width:0.99997467"
       id="text414"
       x="282.60846"
       y="-554.19995"><tspan
         x="282.60846 285.64496"
         y="-554.19995"
         sodipodi:role="line"
         id="tspan410"
         style="stroke-width:0.99997467">6 </tspan><tspan
         x="214.95435 217.74818 220.55386 223.28258 226.24808 228.18364 229.43851 232.47502 246.6573 249.45114 252.25682 254.98555 257.95105 259.8866 261.14148 264.17798 285.043 287.83682 290.64252 293.37125 296.33673 298.27231 299.52716 302.56369"
         y="-539.57605"
         sodipodi:role="line"
         id="tspan412"
         style="stroke-width:0.99997467">Layer 3 Layer 4 Layer 5 </tspan></text>
<path
       d="m 325.8325,609.95279 h 3.3986 V 550.1248 h -3.3986 z"
       style="fill:none;stroke:#000000;stroke-width:0.37;stroke-linecap:butt;stroke-linejoin:round;stroke-miterlimit:10;stroke-dasharray:none;stroke-opacity:1"
       id="path416"
       inkscape:connector-curvature="0" /><text
       transform="scale(1.0000253,-0.99997466)"
       style="font-variant:normal;font-weight:normal;font-size:5.91914988px;font-family:MyriadPro;-inkscape-font-specification:MyriadPro-Regular;writing-mode:lr-tb;fill:#000000;fill-opacity:1;fill-rule:nonzero;stroke:none;stroke-width:0.99997467"
       id="text420"
       x="304.12921"
       y="-551.42517"><tspan
         x="304.12921 307.16574 310.20224"
         y="-551.42517"
         sodipodi:role="line"
         id="tspan418"
         style="stroke-width:0.99997467">256</tspan></text>
<path
       inkscape:connector-curvature="0"
       id="path428"
       style="fill:none;stroke:#000000;stroke-width:0.98699999;stroke-linecap:butt;stroke-linejoin:round;stroke-miterlimit:10;stroke-dasharray:none;stroke-opacity:1"
       d="m 300.46949,553.04679 7.698,-7.093" /><path
       inkscape:connector-curvature="0"
       id="path432"
       style="fill:#000000;fill-opacity:1;fill-rule:evenodd;stroke:none"
       d="m 299.78449,553.67777 3.062,-0.576 c 0.268,-0.05 0.444,-0.308 0.394,-0.576 -0.051,-0.268 -0.308,-0.444 -0.576,-0.394 l -1.511,0.285 0.407,-1.483 c 0.071,-0.263 -0.083,-0.534 -0.346,-0.606 -0.262,-0.072 -0.534,0.082 -0.606,0.345" /><path
       inkscape:connector-curvature="0"
       id="path436"
       style="fill:#000000;fill-opacity:1;fill-rule:evenodd;stroke:none"
       d="m 308.85249,545.32279 -3.062,0.576 c -0.268,0.05 -0.445,0.308 -0.394,0.576 0.051,0.267 0.308,0.444 0.576,0.393 l 1.511,-0.284 -0.407,1.483 c -0.072,0.263 0.083,0.534 0.346,0.606 0.262,0.072 0.534,-0.083 0.606,-0.345" /><text
       transform="scale(1.0000253,-0.99997466)"
       style="font-variant:normal;font-weight:normal;font-size:5.91914988px;font-family:MyriadPro;-inkscape-font-specification:MyriadPro-Regular;writing-mode:lr-tb;fill:#000000;fill-opacity:1;fill-rule:nonzero;stroke:none;stroke-width:0.99997467"
       id="text442"
       x="313.14975"
       y="-575.97668"><tspan
         x="313.14975 316.18628 319.22281 322.25934 325.29584"
         y="-575.97668"
         sodipodi:role="line"
         id="tspan438"
         style="stroke-width:0.99997467">4096 </tspan><tspan
         x="313.14975 316.41119 319.69635 321.08142 323.04065"
         y="-569.0708"
         sodipodi:role="line"
         id="tspan440"
         style="stroke-width:0.99997467">units</tspan></text>
<path
       d="m 349.4185,610.05979 h 3.4971 v -59.828 h -3.4971 z"
       style="fill:none;stroke:#000000;stroke-width:0.37;stroke-linecap:butt;stroke-linejoin:round;stroke-miterlimit:10;stroke-dasharray:none;stroke-opacity:1"
       id="path448"
       inkscape:connector-curvature="0" /><text
       transform="scale(1.0000253,-0.99997466)"
       style="font-variant:normal;font-weight:normal;font-size:5.91914988px;font-family:MyriadPro;-inkscape-font-specification:MyriadPro-Regular;writing-mode:lr-tb;fill:#000000;fill-opacity:1;fill-rule:nonzero;stroke:none;stroke-width:0.99997467"
       id="text454"
       x="336.83469"
       y="-575.97668"><tspan
         x="336.83469 339.87119 342.90771 345.94424 348.98077"
         y="-575.97668"
         sodipodi:role="line"
         id="tspan450"
         style="stroke-width:0.99997467">4096 </tspan><tspan
         x="336.83469 340.09613 343.38126 344.76633 346.72559"
         y="-569.0708"
         sodipodi:role="line"
         id="tspan452"
         style="stroke-width:0.99997467">units</tspan></text>
<text
       transform="scale(1.0000253,-0.99997466)"
       style="font-variant:normal;font-weight:normal;font-size:5.91914988px;font-family:MyriadPro;-inkscape-font-specification:MyriadPro-Regular;writing-mode:lr-tb;fill:#000000;fill-opacity:1;fill-rule:nonzero;stroke:none;stroke-width:0.99997467"
       id="text462"
       x="318.51685"
       y="-539.57587"><tspan
         x="318.51685 321.31067 324.11636 326.84509 329.81058 331.74615 333.00101 336.03754 342.06973 344.86356 347.66925 350.39798 353.36346 355.29904 356.55389 359.59042"
         y="-539.57587"
         sodipodi:role="line"
         id="tspan460"
         style="stroke-width:0.99997467">Layer 6 Layer 7 </tspan></text>
<path
       d="m 380.18851,596.30478 h 3.4971 v -36.054 h -3.4971 z"
       style="fill:none;stroke:#000000;stroke-width:0.37;stroke-linecap:butt;stroke-linejoin:round;stroke-miterlimit:10;stroke-dasharray:none;stroke-opacity:1"
       id="path464"
       inkscape:connector-curvature="0" /><text
       transform="scale(1.0000253,-0.99997466)"
       style="font-variant:normal;font-weight:normal;font-size:5.91914988px;font-family:MyriadPro;-inkscape-font-specification:MyriadPro-Regular;writing-mode:lr-tb;fill:#000000;fill-opacity:1;fill-rule:nonzero;stroke:none;stroke-width:0.99997467"
       id="text472"
       x="375.51111"
       y="-583.36737"><tspan
         x="375.51111 378.94421"
         y="-583.36737"
         sodipodi:role="line"
         id="tspan466"
         style="stroke-width:0.99997467">C </tspan><tspan
         x="367.12604 369.7778 371.17471 374.02777 376.37173 378.71573"
         y="-576.46149"
         sodipodi:role="line"
         id="tspan468"
         style="stroke-width:0.99997467">class </tspan><tspan
         x="358.74036 361.08435 364.33395 366.12747 368.0867 373.02328 375.87631"
         y="-569.5556"
         sodipodi:role="line"
         id="tspan470"
         style="stroke-width:0.99997467">softmax</tspan></text>
<text
       transform="scale(1.0000253,-0.99997466)"
       style="font-variant:normal;font-weight:normal;font-size:5.91914988px;font-family:MyriadPro;-inkscape-font-specification:MyriadPro-Regular;writing-mode:lr-tb;fill:#000000;fill-opacity:1;fill-rule:nonzero;stroke:none;stroke-width:0.99997467"
       id="text480"
       x="372.01556"
       y="-539.33472"><tspan
         x="372.01556 376.09622 379.36005 381.32166 384.69202 387.95584 389.91745"
         y="-539.33472"
         sodipodi:role="line"
         id="tspan478"
         style="stroke-width:0.99997467">Output </tspan></text>
<text
       transform="scale(1.0000225,-0.9999775)"
       style="font-variant:normal;font-weight:normal;font-size:4.4394002px;font-family:MyriadPro;-inkscape-font-specification:MyriadPro-Regular;writing-mode:lr-tb;fill:#000000;fill-opacity:1;fill-rule:nonzero;stroke:none;stroke-width:0.99997753"
       id="text486"
       x="185.32512"
       y="-577.12939"><tspan
         x="185.32512 187.28734 189.72456 192.18266 193.64633 195.09224 197.22626 198.9785 200.44217"
         y="-577.12939"
         sodipodi:role="line"
         id="tspan482"
         style="stroke-width:0.99997753">contrast </tspan><tspan
         x="185.32512 187.79254 190.23332 191.68855 195.39456"
         y="-572.19678"
         sodipodi:role="line"
         id="tspan484"
         style="stroke-width:0.99997753">norm.</tspan></text>
<text
       transform="scale(1.0000225,-0.9999775)"
       style="font-variant:normal;font-weight:normal;font-size:4.4394002px;font-family:MyriadPro;-inkscape-font-specification:MyriadPro-Regular;writing-mode:lr-tb;fill:#000000;fill-opacity:1;fill-rule:nonzero;stroke:none;stroke-width:0.99997753"
       id="text492"
       x="136.07814"
       y="-578.1109"><tspan
         x="136.07814 138.04036 140.47758 142.93568 144.39935 145.84526 147.97928 149.73151 151.19519"
         y="-578.1109"
         sodipodi:role="line"
         id="tspan488"
         style="stroke-width:0.99997753">contrast </tspan><tspan
         x="136.07814 138.54556 140.98634 142.44157 146.14758"
         y="-573.17828"
         sodipodi:role="line"
         id="tspan490"
         style="stroke-width:0.99997753">norm.</tspan></text>
</g></svg>